# xmcd
#
# Track frame offsets:
#	150
#	13580
#	26345
#	40500
#	57055
#	73118
#	88498
#	99385
#	113240
#	124313
#	140515
#	153075
#	166755
#	184518
#
# Disc length: 2673
#
# Revision: 1
# Processed by: cddbd v1.5.1PL0 Copyright (c) Steve Scherf et al.
# Submitted via: audiograbber 1.81.03
# Normalized: r0:DSETVAR1
#
DISCID=ad0a6f0e
DTITLE=Various Artist - Spotlight On Hits - Country Vol 16
DYEAR=1900
DGENRE=
TTITLE0=Patty Loveless - You Will
TTITLE1=Toby Keith - A Little Less Talk and A Lot More Action
TTITLE2=Lorrie Morgan - Cryin Time
TTITLE3=Brooks and Dunn - Rock My World (Little Country Girl)
TTITLE4=Suzy Bogguss - Hey Cinderella
TTITLE5=Billy Dean - We Just Disagree
TTITLE6=Parton and Wynette and Lynn - Silver Threads and Golden Needles
TTITLE7=Collin Raye - That's My Story
TTITLE8=George Jones - High Tech Redneck
TTITLE9=Diamond Rio - Sawmill Road
TTITLE10=Brother Phelps - Were You Really Livin
TTITLE11=Kenny Chesney - Whatever it Takes
TTITLE12=Emmylou Harris - Thanks To You
TTITLE13=Daron Norwood - If it Wasn't for Her I Wouldn't Have You
EXTD=
EXTT0=
EXTT1=
EXTT2=
EXTT3=
EXTT4=
EXTT5=
EXTT6=
EXTT7=
EXTT8=
EXTT9=
EXTT10=
EXTT11=
EXTT12=
EXTT13=
PLAYORDER=
